<mxfile host="app.diagrams.net" modified="2024-05-08T07:09:11.939Z" agent="Mozilla/5.0 (Macintosh; Intel Mac OS X 10_15_7) AppleWebKit/537.36 (KHTML, like Gecko) Chrome/122.0.0.0 Safari/537.36" version="24.0.5" etag="2alXXvSYBUVzNV-2d4-N" type="github">
  <diagram name="ページ1" id="ctYusZKSVj6xvlo92A4Y">
    <mxGraphModel>
      <root>
        <mxCell id="0" />
        <mxCell id="1" parent="0" />
      </root>
    </mxGraphModel>
  </diagram>
</mxfile>
